<svg xmlns="http://www.w3.org/2000/svg" viewBox="0 0 300 380" fill="none">
  <defs><filter id="g"><feGaussianBlur stdDeviation="10"/></filter></defs>
  <ellipse cx="150" cy="190" rx="120" ry="150" fill="#E50914" opacity="0.08" filter="url(#g)"/>
  <!-- motion lines - wave pattern -->
  <path d="M 40 100 Q 100 70 150 100 Q 200 130 260 100" stroke="#E50914" stroke-width="2.5" opacity="0.8" stroke-linecap="round"/>
  <path d="M 40 130 Q 100 100 150 130 Q 200 160 260 130" stroke="#E50914" stroke-width="2"   opacity="0.6" stroke-linecap="round"/>
  <path d="M 40 160 Q 100 130 150 160 Q 200 190 260 160" stroke="#E50914" stroke-width="1.5" opacity="0.45" stroke-linecap="round"/>
  <path d="M 40 190 Q 100 160 150 190 Q 200 220 260 190" stroke="#E50914" stroke-width="1"   opacity="0.3" stroke-linecap="round"/>
  <path d="M 40 220 Q 100 190 150 220 Q 200 250 260 220" stroke="#E50914" stroke-width="1.5" opacity="0.45" stroke-linecap="round"/>
  <path d="M 40 250 Q 100 220 150 250 Q 200 280 260 250" stroke="#E50914" stroke-width="2"   opacity="0.6" stroke-linecap="round"/>
  <path d="M 40 280 Q 100 250 150 280 Q 200 310 260 280" stroke="#E50914" stroke-width="2.5" opacity="0.8" stroke-linecap="round"/>
  <!-- speed accent -->
  <line x1="60" y1="190" x2="240" y2="190" stroke="#ffffff" stroke-width="0.5" opacity="0.15"/>
  <circle cx="150" cy="190" r="18" fill="#E50914" opacity="0.85"/>
  <circle cx="150" cy="190" r="7"  fill="#ffffff" opacity="0.9"/>
</svg>
